HIERARCHY
ROOT Root
{
	OFFSET 0.00000 0.00000 0.00000
	CHANNELS 6 Xposition Yposition Zposition Zrotation Xrotation Yrotation
	JOINT Hip
	{
		OFFSET 0 0 0	
		CHANNELS 3 Zrotation Xrotation Yrotation
		JOINT Tummy
		{
			OFFSET 0 0.04 0	
			CHANNELS 3 Zrotation Xrotation Yrotation
			JOINT ChestBottom
			{
				OFFSET 0 0.194 0	
				CHANNELS 3 Zrotation Xrotation Yrotation
				JOINT ChestTop
				{
					OFFSET 0 0.166 0	
					CHANNELS 3 Zrotation Xrotation Yrotation
					JOINT LeftCollar
					{
						OFFSET 0 0.1 0	
						CHANNELS 3 Zrotation Xrotation Yrotation
						JOINT LeftUpperArm
						{
							OFFSET 0.156 -0.02 0.03	
							CHANNELS 3 Zrotation Xrotation Yrotation
							JOINT LeftForeArm
							{
								OFFSET 0.035 -0.27 -0.01	
								CHANNELS 3 Zrotation Xrotation Yrotation
								JOINT LeftHand
								{
									OFFSET 0.01 -0.27 0.01	
									CHANNELS 3 Zrotation Xrotation Yrotation
									End Site
									{
										OFFSET 0 -0.15 0
									}
								}
							}
						}
					}
					JOINT RightCollar
					{
						OFFSET 0 0.1 0	
						CHANNELS 3 Zrotation Xrotation Yrotation
						JOINT RightUpperArm
						{
							OFFSET -0.156 -0.02 0.03	
							CHANNELS 3 Zrotation Xrotation Yrotation
							JOINT RightForeArm
							{
								OFFSET -0.035 -0.27 -0.01	
								CHANNELS 3 Zrotation Xrotation Yrotation
								JOINT RightHand
								{
									OFFSET -0.01 -0.27 0.01	
									CHANNELS 3 Zrotation Xrotation Yrotation
									End Site
									{
										OFFSET 0 -0.15 0
									}
								}
							}
						}
					}
					JOINT Neck
					{
						OFFSET 0 0.1 0	
						CHANNELS 3 Zrotation Xrotation Yrotation
						JOINT Head
						{
							OFFSET 0 0.127 0.03	
							CHANNELS 3 Zrotation Xrotation Yrotation
							End Site
							{
								OFFSET 0 0.127 0.03
							}
						}
					}
				}
			}
		}
	}
	JOINT LeftHip
	{
		OFFSET 0 0 0	
		CHANNELS 3 Zrotation Xrotation Yrotation
		JOINT LeftThigh
		{
			OFFSET 0.088 -0.06 0	
			CHANNELS 3 Zrotation Xrotation Yrotation
			JOINT LeftLowerLeg
			{
				OFFSET 0 -0.39 0.02	
				CHANNELS 3 Zrotation Xrotation Yrotation
				JOINT LeftFootTop
				{
					OFFSET 0 -0.43 -0.02	
					CHANNELS 3 Zrotation Xrotation Yrotation
					JOINT LeftFootFront
					{
						OFFSET 0 -0.07 0.085	
						CHANNELS 3 Zrotation Xrotation Yrotation
						End Site
						{
							OFFSET 0 -0.005 0.09
						}
					}
				}
				JOINT LeftHeel
				{
					OFFSET 0 -0.43 -0.02	
					CHANNELS 3 Zrotation Xrotation Yrotation
					End Site
					{
						OFFSET 0 -0.075 -0.05
					}
				}
			}
		}
	}
	JOINT RightHip
	{
		OFFSET 0 0 0	
		CHANNELS 3 Zrotation Xrotation Yrotation
		JOINT RightThigh
		{
			OFFSET -0.088 -0.06 0	
			CHANNELS 3 Zrotation Xrotation Yrotation
			JOINT RightLowerLeg
			{
				OFFSET 0 -0.39 0.02	
				CHANNELS 3 Zrotation Xrotation Yrotation
				JOINT RightFootTop
				{
					OFFSET 0 -0.43 -0.02	
					CHANNELS 3 Zrotation Xrotation Yrotation
					JOINT RightFootFront
					{
						OFFSET 0 -0.07 0.085	
						CHANNELS 3 Zrotation Xrotation Yrotation
						End Site
						{
							OFFSET 0 -0.005 0.09
						}
					}
				}
				JOINT RightHeel
				{
					OFFSET 0 -0.43 -0.02	
					CHANNELS 3 Zrotation Xrotation Yrotation
					End Site
					{
						OFFSET 0 -0.075 -0.05
					}
				}
			}
		}
	}
}
MOTION
Frames: 6
Frame Time: 0.025
0 0.95692 0 -0 0 -0 -0.37713 0.24804 -1.1999 0.9353 -0.75417 -1.4717 0.9353 -0.75417 -1.4717 0.78695 -0.63189 -1.2371 -0 0 -0 -2.3661 2.9064 3.6144 -2.6864 -3.4368 -3.3625 7.9764 -10.511 1.6503 -0 0 -0 -0.1203 2.2814 -2.886 1.8094 -2.5591 0.45054 -3.8319 -8.5547 -2.2072 -0.63993 0.39504 4.016 -0.63993 0.39504 4.016 -0.37713 0.24804 -1.1999 -0.22376 0.10507 -0.3036 -0.40651 -0.71305 -3.2068 -0.20367 0.81835 -0.031371 -0 0 2.0761e-07 -0 0 -0 -0.37713 0.24804 -1.1999 0.68455 -0.39975 1.8283 -1.0487 0.15606 -1.2564 -0.45065 0.50755 0.28255 0 0 -2.5013e-09 -0 0 -0 
0 0.95691 0 -0 0 -0 -0.37433 0.25139 -1.1577 0.93089 -0.74926 -1.4876 0.93089 -0.74926 -1.4876 0.78326 -0.62776 -1.2504 -0 0 -0 -2.3514 2.8775 3.6552 -2.7172 -3.4397 -3.4013 7.999 -10.495 1.6471 -0 0 -0 -0.12356 2.2653 -2.8972 1.8084 -2.5432 0.47771 -3.8195 -8.5707 -2.2215 -0.64418 0.39165 4.0287 -0.64417 0.39165 4.0287 -0.37433 0.25139 -1.1577 -0.22543 0.10254 -0.33058 -0.4021 -0.72634 -3.2367 -0.21017 0.83064 -0.016679 0.0046376 -0.0090371 0.009916 -0 0 -0 -0.37433 0.25139 -1.1577 0.67657 -0.39991 1.7923 -1.0434 0.16981 -1.2532 -0.45056 0.49007 0.27298 0.0070621 -0.014525 -0.012857 -0 0 -0 
0 0.95689 0 -0 0 -0 -0.3734 0.25352 -1.0992 0.92802 -0.74375 -1.5097 0.92802 -0.74375 -1.5097 0.78085 -0.62311 -1.2689 -0 0 -0 -2.3393 2.8425 3.712 -2.7474 -3.4482 -3.4413 8.0343 -10.474 1.663 -0 0 -0 -0.1327 2.2481 -2.913 1.8161 -2.5117 0.52126 -3.816 -8.605 -2.237 -0.65315 0.39075 4.0465 -0.65315 0.39074 4.0465 -0.3734 0.25352 -1.0992 -0.2243 0.10392 -0.36787 -0.39779 -0.74706 -3.2787 -0.21331 0.83869 0.014111 0.0067288 -0.012207 0.013954 -0 0 -0 -0.3734 0.25352 -1.0992 0.671 -0.39284 1.7484 -1.0404 0.18353 -1.2548 -0.44185 0.45223 0.2466 0.01011 -0.019901 -0.017971 -0 0 -0 
0 0.95688 0 -0 0 -0 -0.37489 0.25204 -1.0366 0.92688 -0.73883 -1.5348 0.92688 -0.73883 -1.5348 0.7799 -0.61895 -1.29 -0 0 -0 -2.3352 2.8089 3.7739 -2.7605 -3.4546 -3.4565 8.0589 -10.459 1.6683 -0 0 -0 -0.13828 2.2335 -2.9253 1.8276 -2.4769 0.55928 -3.8234 -8.6416 -2.2417 -0.66377 0.39625 4.0673 -0.66377 0.39625 4.0673 -0.37489 0.25204 -1.0366 -0.21778 0.11636 -0.40985 -0.39965 -0.77216 -3.319 -0.21096 0.84072 0.047691 0.0080114 -0.011547 0.014988 -0 0 -0 -0.37489 0.25204 -1.0366 0.66938 -0.38296 1.6971 -1.0436 0.19792 -1.2502 -0.42535 0.40926 0.2123 0.011663 -0.020109 -0.018923 -0 0 -0 
0 0.95685 0 -0 0 -0 -0.3707 0.24848 -0.97021 0.92255 -0.73462 -1.5637 0.92255 -0.73462 -1.5637 0.77629 -0.61539 -1.3143 -0 0 -0 -2.3367 2.7765 3.8344 -2.7518 -3.453 -3.4486 8.0659 -10.455 1.6636 -0 0 -0 -0.12598 2.2195 -2.9291 1.8237 -2.4546 0.56512 -3.8284 -8.6649 -2.2169 -0.67159 0.41123 4.0917 -0.67159 0.41123 4.0917 -0.3707 0.24848 -0.97021 -0.21107 0.14005 -0.46089 -0.4085 -0.79879 -3.3439 -0.20549 0.83571 0.072007 0.0088339 -0.009923 0.015742 -0 0 -0 -0.3707 0.24848 -0.97021 0.66764 -0.37426 1.6336 -1.06 0.21472 -1.2333 -0.39971 0.36699 0.17332 0.014191 -0.019839 -0.019361 -0 0 -0 
0 0.95683 0 -0 0 -0 -0.34783 0.2526 -0.90182 0.91034 -0.73334 -1.5932 0.91034 -0.73334 -1.5932 0.76606 -0.61431 -1.3391 -0 0 -0 -2.3383 2.7485 3.8775 -2.7197 -3.4529 -3.42 8.0475 -10.455 1.6579 -0 0 -0 -0.092991 2.2043 -2.9211 1.7968 -2.4415 0.55149 -3.8305 -8.6785 -2.192 -0.67512 0.43401 4.1167 -0.67512 0.43401 4.1167 -0.34783 0.2526 -0.90182 -0.21752 0.16187 -0.51625 -0.41814 -0.82613 -3.3563 -0.20318 0.82668 0.086731 0.0071857 -0.00933 0.01606 -0 0 -0 -0.34783 0.2526 -0.90182 0.65691 -0.36824 1.5821 -1.0906 0.22511 -1.235 -0.36709 0.32665 0.13844 0.017313 -0.018964 -0.018873 -0 0 -0 
